<svg width="20" height="20" viewBox="0 0 20 20" fill="none" xmlns="http://www.w3.org/2000/svg">
<g clip-path="url(#clip0_295_3666)">
<g clip-path="url(#clip1_295_3666)">
<path fill-rule="evenodd" clip-rule="evenodd" d="M10.1067 19.1666H9.82124C9.75441 19.1326 9.68773 19.0983 9.62068 19.0647C6.96478 17.7345 4.30931 16.4034 1.65209 15.0758C1.37734 14.9386 1.25051 14.7351 1.25097 14.423C1.25551 11.4664 1.25626 8.50978 1.25 5.55319C1.24933 5.23008 1.37909 5.03215 1.66306 4.89267C2.69698 4.38496 3.72611 3.86744 4.75431 3.34819C4.85681 3.29646 4.93064 3.29955 5.03178 3.35211C7.72488 4.75252 10.4196 6.14984 13.1163 7.54324C13.2336 7.60388 13.2739 7.67084 13.2735 7.80224C13.2686 9.18196 13.2701 10.5617 13.2708 11.9415C13.2709 12.214 13.3868 12.2842 13.629 12.1581C14.1032 11.9112 14.5723 11.6538 15.0515 11.4173C15.2434 11.3226 15.3158 11.199 15.3147 10.9852C15.3073 9.61748 15.3039 8.24957 15.3175 6.8819C15.3199 6.63634 15.2438 6.51273 15.0282 6.40247C12.4001 5.05807 9.77689 3.7038 7.15262 2.35179C7.09887 2.32411 7.04694 2.29294 6.97461 2.25245C7.05763 2.208 7.10888 2.17892 7.16148 2.15268C7.96904 1.7499 8.77978 1.35347 9.58277 0.941685C9.86138 0.798833 10.11 0.796535 10.3925 0.93831C13.031 2.26207 15.672 3.58087 18.3175 4.89034C18.6262 5.04314 18.7505 5.25004 18.7496 5.59049C18.7427 8.51125 18.7422 11.432 18.75 14.3528C18.751 14.7103 18.6103 14.9276 18.2956 15.083C16.2773 16.0796 14.2632 17.0848 12.2486 18.089C11.5333 18.4455 10.8206 18.8072 10.1067 19.1666Z" fill="black"/>
</g>
</g>
<defs>
<clipPath id="clip0_295_3666">
<rect width="20" height="20" fill="white"/>
</clipPath>
<clipPath id="clip1_295_3666">
<rect width="20" height="20" fill="white"/>
</clipPath>
</defs>
</svg>
