<svg width="16" height="16" viewBox="0 0 16 16" fill="none" xmlns="http://www.w3.org/2000/svg">
<g clip-path="url(#clip0_295_2304)">
<g clip-path="url(#clip1_295_2304)">
<g clip-path="url(#clip2_295_2304)">
<path d="M1.9987 2H13.9987C14.1755 2 14.3451 2.07024 14.4701 2.19526C14.5951 2.32029 14.6654 2.48986 14.6654 2.66667V13.3333C14.6654 13.5101 14.5951 13.6797 14.4701 13.8047C14.3451 13.9298 14.1755 14 13.9987 14H1.9987C1.82189 14 1.65232 13.9298 1.52729 13.8047C1.40227 13.6797 1.33203 13.5101 1.33203 13.3333V2.66667C1.33203 2.48986 1.40227 2.32029 1.52729 2.19526C1.65232 2.07024 1.82189 2 1.9987 2ZM10.9747 10.3573L13.332 8L10.9747 5.64267L10.032 6.58667L11.4467 8L10.032 9.414L10.9747 10.3573ZM4.5507 8L5.96536 6.586L5.0227 5.64267L2.66536 8L5.0227 10.3573L5.96536 9.41333L4.5507 8ZM7.4947 11.3333L9.92136 4.66667H8.5027L6.07603 11.3333H7.4947Z" fill="black"/>
</g>
</g>
</g>
<defs>
<clipPath id="clip0_295_2304">
<rect width="16" height="16" fill="white"/>
</clipPath>
<clipPath id="clip1_295_2304">
<rect width="16" height="16" fill="white"/>
</clipPath>
<clipPath id="clip2_295_2304">
<rect width="16" height="16" fill="white"/>
</clipPath>
</defs>
</svg>
