<svg width="20" height="20" viewBox="0 0 20 20" fill="none" xmlns="http://www.w3.org/2000/svg">
<g clip-path="url(#clip0_295_3649)">
<g clip-path="url(#clip1_295_3649)">
<g clip-path="url(#clip2_295_3649)">
<path d="M10.0013 18.3334C5.3988 18.3334 1.66797 14.6026 1.66797 10.0001C1.66797 5.39758 5.3988 1.66675 10.0013 1.66675C14.6038 1.66675 18.3346 5.39758 18.3346 10.0001C18.3346 14.6026 14.6038 18.3334 10.0013 18.3334ZM7.08464 11.6667V13.3334H9.16797V15.0001H10.8346V13.3334H11.668C12.2205 13.3334 12.7504 13.1139 13.1411 12.7232C13.5318 12.3325 13.7513 11.8026 13.7513 11.2501C13.7513 10.6975 13.5318 10.1676 13.1411 9.77694C12.7504 9.38624 12.2205 9.16675 11.668 9.16675H8.33464C8.22413 9.16675 8.11815 9.12285 8.04001 9.04471C7.96187 8.96657 7.91797 8.86059 7.91797 8.75008C7.91797 8.63957 7.96187 8.53359 8.04001 8.45545C8.11815 8.37731 8.22413 8.33341 8.33464 8.33341H12.918V6.66675H10.8346V5.00008H9.16797V6.66675H8.33464C7.7821 6.66675 7.2522 6.88624 6.8615 7.27694C6.4708 7.66764 6.2513 8.19755 6.2513 8.75008C6.2513 9.30262 6.4708 9.83252 6.8615 10.2232C7.2522 10.6139 7.7821 10.8334 8.33464 10.8334H11.668C11.7785 10.8334 11.8845 10.8773 11.9626 10.9555C12.0407 11.0336 12.0846 11.1396 12.0846 11.2501C12.0846 11.3606 12.0407 11.4666 11.9626 11.5447C11.8845 11.6228 11.7785 11.6667 11.668 11.6667H7.08464Z" fill="black"/>
</g>
</g>
</g>
<defs>
<clipPath id="clip0_295_3649">
<rect width="20" height="20" fill="white"/>
</clipPath>
<clipPath id="clip1_295_3649">
<rect width="20" height="20" fill="white"/>
</clipPath>
<clipPath id="clip2_295_3649">
<rect width="20" height="20" fill="white"/>
</clipPath>
</defs>
</svg>
