<svg width="16" height="16" viewBox="0 0 16 16" fill="none" xmlns="http://www.w3.org/2000/svg">
<g clip-path="url(#clip0_295_2293)">
<g clip-path="url(#clip1_295_2293)">
<g clip-path="url(#clip2_295_2293)">
<path d="M8.66694 14.0001H12.0003V15.3334H4.00027V14.0001H7.3336V13.3001C6.27659 13.194 5.26023 12.8368 4.36918 12.2584C3.47812 11.68 2.73817 10.897 2.21094 9.97478L3.36894 9.31344C3.77613 10.0249 4.34185 10.633 5.02217 11.0904C5.70249 11.5478 6.47909 11.8422 7.29165 11.9507C8.10422 12.0593 8.93086 11.979 9.70738 11.7163C10.4839 11.4535 11.1894 11.0152 11.7691 10.4356C12.3487 9.85591 12.787 9.15041 13.0498 8.37389C13.3125 7.59736 13.3928 6.77072 13.2842 5.95816C13.1757 5.1456 12.8813 4.369 12.4239 3.68868C11.9665 3.00836 11.3584 2.44263 10.6469 2.03544L11.3083 0.877441C12.329 1.46047 13.1773 2.30311 13.7671 3.31986C14.357 4.33662 14.6674 5.4913 14.6669 6.66677C14.6669 10.1234 12.0356 12.9661 8.66694 13.3001V14.0001ZM8.00027 11.3334C7.38744 11.3334 6.7806 11.2127 6.21441 10.9782C5.64823 10.7437 5.13378 10.3999 4.70044 9.96661C4.2671 9.53327 3.92335 9.01882 3.68883 8.45263C3.45431 7.88645 3.3336 7.27961 3.3336 6.66677C3.3336 6.05394 3.45431 5.4471 3.68883 4.88092C3.92335 4.31473 4.2671 3.80028 4.70044 3.36694C5.13378 2.9336 5.64823 2.58986 6.21441 2.35534C6.7806 2.12082 7.38744 2.00011 8.00027 2.00011C9.23795 2.00011 10.4249 2.49177 11.3001 3.36694C12.1753 4.24211 12.6669 5.4291 12.6669 6.66677C12.6669 7.90445 12.1753 9.09144 11.3001 9.96661C10.4249 10.8418 9.23795 11.3334 8.00027 11.3334Z" fill="black"/>
</g>
</g>
</g>
<defs>
<clipPath id="clip0_295_2293">
<rect width="16" height="16" fill="white"/>
</clipPath>
<clipPath id="clip1_295_2293">
<rect width="16" height="16" fill="white"/>
</clipPath>
<clipPath id="clip2_295_2293">
<rect width="16" height="16" fill="white"/>
</clipPath>
</defs>
</svg>
