<svg width="16" height="16" viewBox="0 0 16 16" fill="none" xmlns="http://www.w3.org/2000/svg">
<g clip-path="url(#clip0_295_3825)">
<g clip-path="url(#clip1_295_3825)">
<g clip-path="url(#clip2_295_3825)">
<path d="M2.66536 2H13.332L14.6654 4.66667V13.3333C14.6654 13.5101 14.5951 13.6797 14.4701 13.8047C14.3451 13.9298 14.1755 14 13.9987 14H1.9987C1.82189 14 1.65232 13.9298 1.52729 13.8047C1.40227 13.6797 1.33203 13.5101 1.33203 13.3333V4.66933L2.66536 2ZM8.66536 9.33333V6.66667H7.33203V9.33333H5.33203L7.9987 12L10.6654 9.33333H8.66536ZM13.1747 4.66667L12.508 3.33333H3.49003L2.82336 4.66667H13.1747Z" fill="black"/>
</g>
</g>
</g>
<defs>
<clipPath id="clip0_295_3825">
<rect width="16" height="16" fill="white"/>
</clipPath>
<clipPath id="clip1_295_3825">
<rect width="16" height="16" fill="white"/>
</clipPath>
<clipPath id="clip2_295_3825">
<rect width="16" height="16" fill="white"/>
</clipPath>
</defs>
</svg>
