<svg width="16" height="16" viewBox="0 0 16 16" fill="none" xmlns="http://www.w3.org/2000/svg">
<g clip-path="url(#clip0_295_2286)">
<g clip-path="url(#clip1_295_2286)">
<path d="M9.33203 13.3333H6.66536V14.6666H5.33203V13.3333H3.33203C3.15522 13.3333 2.98565 13.263 2.86063 13.138C2.7356 13.013 2.66536 12.8434 2.66536 12.6666V10.6666H1.33203V9.33325H2.66536V6.66658H1.33203V5.33325H2.66536V3.33325C2.66536 3.15644 2.7356 2.98687 2.86063 2.86185C2.98565 2.73682 3.15522 2.66659 3.33203 2.66659H5.33203V1.33325H6.66536V2.66659H9.33203V1.33325H10.6654V2.66659H12.6654C12.8422 2.66659 13.0117 2.73682 13.1368 2.86185C13.2618 2.98687 13.332 3.15644 13.332 3.33325V5.33325H14.6654V6.66658H13.332V9.33325H14.6654V10.6666H13.332V12.6666C13.332 12.8434 13.2618 13.013 13.1368 13.138C13.0117 13.263 12.8422 13.3333 12.6654 13.3333H10.6654V14.6666H9.33203V13.3333ZM4.66536 4.66658V7.33325H7.33203V4.66658H4.66536Z" fill="black"/>
</g>
</g>
<defs>
<clipPath id="clip0_295_2286">
<rect width="16" height="16" fill="white"/>
</clipPath>
<clipPath id="clip1_295_2286">
<rect width="16" height="16" fill="white"/>
</clipPath>
</defs>
</svg>
