<svg width="16" height="16" viewBox="0 0 16 16" fill="none" xmlns="http://www.w3.org/2000/svg">
<g clip-path="url(#clip0_295_3747)">
<g clip-path="url(#clip1_295_3747)">
<g clip-path="url(#clip2_295_3747)">
<path d="M1.9987 2H13.9987C14.1755 2 14.3451 2.07024 14.4701 2.19526C14.5951 2.32029 14.6654 2.48986 14.6654 2.66667V13.3333C14.6654 13.5101 14.5951 13.6797 14.4701 13.8047C14.3451 13.9298 14.1755 14 13.9987 14H1.9987C1.82189 14 1.65232 13.9298 1.52729 13.8047C1.40227 13.6797 1.33203 13.5101 1.33203 13.3333V2.66667C1.33203 2.48986 1.40227 2.32029 1.52729 2.19526C1.65232 2.07024 1.82189 2 1.9987 2ZM8.0387 7.78867L3.76403 4.15867L2.9007 5.17467L8.04736 9.54467L13.1014 5.17133L12.2294 4.16267L8.0387 7.78867Z" fill="black"/>
</g>
</g>
</g>
<defs>
<clipPath id="clip0_295_3747">
<rect width="16" height="16" fill="white"/>
</clipPath>
<clipPath id="clip1_295_3747">
<rect width="16" height="16" fill="white"/>
</clipPath>
<clipPath id="clip2_295_3747">
<rect width="16" height="16" fill="white"/>
</clipPath>
</defs>
</svg>
