<svg width="20" height="20" viewBox="0 0 20 20" fill="none" xmlns="http://www.w3.org/2000/svg">
<g clip-path="url(#clip0_295_3631)">
<g clip-path="url(#clip1_295_3631)">
<path d="M5.41667 1.66675H14.5833C14.7127 1.66675 14.8403 1.69687 14.956 1.75473C15.0717 1.81258 15.1724 1.89658 15.25 2.00008L17.5 5.00008V17.5001C17.5 17.7211 17.4122 17.9331 17.2559 18.0893C17.0996 18.2456 16.8877 18.3334 16.6667 18.3334H3.33333C3.11232 18.3334 2.90036 18.2456 2.74408 18.0893C2.5878 17.9331 2.5 17.7211 2.5 17.5001V5.00008L4.75 2.00008C4.82762 1.89658 4.92828 1.81258 5.04399 1.75473C5.1597 1.69687 5.2873 1.66675 5.41667 1.66675ZM15.4167 5.00008L14.1667 3.33341H5.83333L4.58333 5.00008H15.4167ZM7.5 8.33341H5.83333V10.0001C5.83333 11.1052 6.27232 12.165 7.05372 12.9464C7.83512 13.7278 8.89493 14.1667 10 14.1667C11.1051 14.1667 12.1649 13.7278 12.9463 12.9464C13.7277 12.165 14.1667 11.1052 14.1667 10.0001V8.33341H12.5V10.0001C12.5 10.6631 12.2366 11.299 11.7678 11.7678C11.2989 12.2367 10.663 12.5001 10 12.5001C9.33696 12.5001 8.70107 12.2367 8.23223 11.7678C7.76339 11.299 7.5 10.6631 7.5 10.0001V8.33341Z" fill="black"/>
</g>
</g>
<defs>
<clipPath id="clip0_295_3631">
<rect width="20" height="20" fill="white"/>
</clipPath>
<clipPath id="clip1_295_3631">
<rect width="20" height="20" fill="white"/>
</clipPath>
</defs>
</svg>
