<svg width="16" height="16" viewBox="0 0 16 16" fill="none" xmlns="http://www.w3.org/2000/svg">
<g clip-path="url(#clip0_295_3739)">
<g clip-path="url(#clip1_295_3739)">
<g clip-path="url(#clip2_295_3739)">
<path d="M3.9987 1.3335H11.9987C12.1755 1.3335 12.3451 1.40373 12.4701 1.52876C12.5951 1.65378 12.6654 1.82335 12.6654 2.00016V14.0002C12.6654 14.177 12.5951 14.3465 12.4701 14.4716C12.3451 14.5966 12.1755 14.6668 11.9987 14.6668H3.9987C3.82189 14.6668 3.65232 14.5966 3.52729 14.4716C3.40227 14.3465 3.33203 14.177 3.33203 14.0002V2.00016C3.33203 1.82335 3.40227 1.65378 3.52729 1.52876C3.65232 1.40373 3.82189 1.3335 3.9987 1.3335ZM7.9987 11.3335C7.82189 11.3335 7.65232 11.4037 7.52729 11.5288C7.40227 11.6538 7.33203 11.8234 7.33203 12.0002C7.33203 12.177 7.40227 12.3465 7.52729 12.4716C7.65232 12.5966 7.82189 12.6668 7.9987 12.6668C8.17551 12.6668 8.34508 12.5966 8.4701 12.4716C8.59513 12.3465 8.66536 12.177 8.66536 12.0002C8.66536 11.8234 8.59513 11.6538 8.4701 11.5288C8.34508 11.4037 8.17551 11.3335 7.9987 11.3335Z" fill="black"/>
</g>
</g>
</g>
<defs>
<clipPath id="clip0_295_3739">
<rect width="16" height="16" fill="white"/>
</clipPath>
<clipPath id="clip1_295_3739">
<rect width="16" height="16" fill="white"/>
</clipPath>
<clipPath id="clip2_295_3739">
<rect width="16" height="16" fill="white"/>
</clipPath>
</defs>
</svg>
