<svg width="17" height="17" viewBox="0 0 17 17" fill="none" xmlns="http://www.w3.org/2000/svg">
<path d="M2.4 0C1.76348 0 1.15303 0.252856 0.702944 0.702944C0.252856 1.15303 0 1.76348 0 2.4V4.8C0 5.43652 0.252856 6.04697 0.702944 6.49706C1.15303 6.94714 1.76348 7.2 2.4 7.2H4.8C5.43652 7.2 6.04697 6.94714 6.49706 6.49706C6.94714 6.04697 7.2 5.43652 7.2 4.8V2.4C7.2 1.76348 6.94714 1.15303 6.49706 0.702944C6.04697 0.252856 5.43652 0 4.8 0H2.4ZM2.4 9.6C1.76348 9.6 1.15303 9.85286 0.702944 10.3029C0.252856 10.753 0 11.3635 0 12V14.4C0 15.0365 0.252856 15.647 0.702944 16.0971C1.15303 16.5471 1.76348 16.8 2.4 16.8H4.8C5.43652 16.8 6.04697 16.5471 6.49706 16.0971C6.94714 15.647 7.2 15.0365 7.2 14.4V12C7.2 11.3635 6.94714 10.753 6.49706 10.3029C6.04697 9.85286 5.43652 9.6 4.8 9.6H2.4ZM9.6 2.4C9.6 1.76348 9.85286 1.15303 10.3029 0.702944C10.753 0.252856 11.3635 0 12 0H14.4C15.0365 0 15.647 0.252856 16.0971 0.702944C16.5471 1.15303 16.8 1.76348 16.8 2.4V4.8C16.8 5.43652 16.5471 6.04697 16.0971 6.49706C15.647 6.94714 15.0365 7.2 14.4 7.2H12C11.3635 7.2 10.753 6.94714 10.3029 6.49706C9.85286 6.04697 9.6 5.43652 9.6 4.8V2.4ZM13.2 9.6C13.5183 9.6 13.8235 9.72643 14.0485 9.95147C14.2736 10.1765 14.4 10.4817 14.4 10.8V12H15.6C15.9183 12 16.2235 12.1264 16.4485 12.3515C16.6736 12.5765 16.8 12.8817 16.8 13.2C16.8 13.5183 16.6736 13.8235 16.4485 14.0485C16.2235 14.2736 15.9183 14.4 15.6 14.4H14.4V15.6C14.4 15.9183 14.2736 16.2235 14.0485 16.4485C13.8235 16.6736 13.5183 16.8 13.2 16.8C12.8817 16.8 12.5765 16.6736 12.3515 16.4485C12.1264 16.2235 12 15.9183 12 15.6V14.4H10.8C10.4817 14.4 10.1765 14.2736 9.95147 14.0485C9.72643 13.8235 9.6 13.5183 9.6 13.2C9.6 12.8817 9.72643 12.5765 9.95147 12.3515C10.1765 12.1264 10.4817 12 10.8 12H12V10.8C12 10.4817 12.1264 10.1765 12.3515 9.95147C12.5765 9.72643 12.8817 9.6 13.2 9.6Z" fill="black"/>
</svg>
