<svg width="16" height="16" viewBox="0 0 16 16" fill="none" xmlns="http://www.w3.org/2000/svg">
<g clip-path="url(#clip0_295_3721)">
<g clip-path="url(#clip1_295_3721)">
<g clip-path="url(#clip2_295_3721)">
<path fill-rule="evenodd" clip-rule="evenodd" d="M4.31143 7.52041V8.95608C3.68217 8.99185 3.13463 9.20371 2.71339 9.67699C2.15645 10.3028 1.98688 11.0314 2.24294 11.8243C2.49895 12.617 3.0596 13.1283 3.87883 13.296C5.26798 13.5803 6.50344 12.5578 6.51878 11.1377L6.51987 10.9674L6.51941 10.6144C6.51926 10.5532 6.51913 10.4904 6.51913 10.4255H8.98342C9.21891 10.4255 9.4548 10.4173 9.68985 10.4275C10.0701 10.4441 10.3838 10.4155 10.6888 10.0813C11.1477 9.57837 11.9025 9.57033 12.4493 9.94401C13.0124 10.3288 13.2273 10.9941 13.0034 11.659C12.803 12.2538 12.1744 12.665 11.5176 12.6125C11.1118 12.5801 10.7637 12.4051 10.5229 12.0738C10.4118 11.9209 10.2954 11.8821 10.1186 11.8843C9.38902 11.8936 8.65929 11.8882 7.91704 11.8882C7.6392 13.0535 6.98364 13.9182 5.91448 14.4427C5.0642 14.8599 4.17353 14.9201 3.26542 14.6553C1.50595 14.1423 0.377252 12.2809 0.733686 10.4761C1.11785 8.53099 2.84072 7.46705 4.31143 7.52041ZM8.47216 3.44825C9.25222 3.7466 9.63321 4.60322 9.31839 5.38152C9.26352 5.51723 9.26333 5.61064 9.33783 5.73591C9.71824 6.37554 10.0881 7.02141 10.4601 7.66236C13.0553 6.94813 14.8075 8.71748 15.1903 10.2338C15.6326 11.9853 14.703 13.8671 13.0296 14.538C11.3146 15.2254 9.34319 14.5561 8.47362 12.9779C8.89227 12.7387 9.31113 12.4993 9.73997 12.2543C10.1197 12.8613 10.6479 13.2045 11.3354 13.3247C12.6992 13.563 14.0321 12.2576 13.8109 10.8882C13.5492 9.2677 11.9264 8.4856 10.4925 9.28909C10.3029 9.39532 10.1138 9.50256 9.89916 9.62365C9.42637 8.80168 8.97034 8.0089 8.51435 7.21617L8.3902 7.00671C8.37019 6.97148 8.35109 6.93582 8.33377 6.8993C8.16167 6.53615 7.94542 6.29115 7.50177 6.17888C6.72424 5.98208 6.34252 5.08761 6.61923 4.31963C6.89464 3.5553 7.72776 3.16349 8.47216 3.44825ZM10.3383 2.02823C11.7958 3.25716 11.9734 5.34041 11.1364 6.64228C10.7248 6.40723 10.3119 6.17144 9.88406 5.92717C10.1304 5.43752 10.2276 4.93749 10.1305 4.39663C9.95793 3.43496 9.02248 2.64082 8.02125 2.63253C6.96272 2.62376 6.00758 3.39242 5.83772 4.38971C5.66864 5.38256 6.05431 6.22104 6.9211 6.74173C7.10159 6.8502 7.2848 6.95408 7.46606 7.06128C7.47858 7.06869 7.48516 7.08618 7.50733 7.11663C7.15845 7.71743 6.80567 8.32603 6.45187 8.93399C6.19922 9.36814 5.94935 9.80395 5.6894 10.2337C5.61119 10.3629 5.605 10.4659 5.66489 10.6112C5.98112 11.3782 5.59735 12.2317 4.82168 12.5189C4.0632 12.7998 3.22837 12.3992 2.95521 11.6233C2.64536 10.7431 3.22545 9.83538 4.18331 9.69397C4.25294 9.68369 4.34557 9.64656 4.37778 9.59238C4.77441 8.92473 5.16179 8.25162 5.54965 7.58319C3.84807 5.96596 4.03859 3.60506 5.37009 2.26133C6.72508 0.893874 8.87854 0.797396 10.3383 2.02823Z" fill="black"/>
</g>
</g>
</g>
<defs>
<clipPath id="clip0_295_3721">
<rect width="16" height="16" fill="white"/>
</clipPath>
<clipPath id="clip1_295_3721">
<rect width="16" height="16" fill="white"/>
</clipPath>
<clipPath id="clip2_295_3721">
<rect width="16" height="16" fill="white"/>
</clipPath>
</defs>
</svg>
