<svg width="24" height="24" viewBox="0 0 24 24" fill="none" xmlns="http://www.w3.org/2000/svg">
<g clip-path="url(#clip0_295_3842)">
<g clip-path="url(#clip1_295_3842)">
<g clip-path="url(#clip2_295_3842)">
<path d="M43.2062 6.41787H24.4312L37.6242 -6.77513C36.6092 -8.29713 35.5942 -9.31213 34.5792 -10.8351C33.1189 -11.8906 31.76 -13.0797 30.5202 -14.3871L17.3292 -1.19313V-19.4601C15.6723 -19.8795 13.9623 -20.0504 12.2552 -19.9671C10.5468 -20.0773 8.832 -19.906 7.17918 -19.4601V-0.685133L-6.52082 -14.3851C-8.09609 -13.4822 -9.47617 -12.2751 -10.5808 -10.8341C-11.5958 -9.31213 -13.1178 -8.29713 -14.1328 -6.77413L-0.940819 6.41787H-19.2068L-19.7138 11.4919C-19.8237 13.1996 -19.6525 14.9137 -19.2068 16.5659H-0.430819L-14.1308 30.2659C-12.1262 33.2846 -9.53851 35.8722 -6.51982 37.8769L6.67318 24.6839V43.4599C8.33006 43.8793 10.0401 44.0501 11.7472 43.9669C13.4549 44.0768 15.169 43.9055 16.8212 43.4599V24.6859L30.0132 37.8799C31.5882 36.9765 32.9679 35.7691 34.0722 34.3279C35.3796 33.088 36.5687 31.7292 37.6242 30.2689L24.4312 17.0739H43.2062C43.6259 15.417 43.7971 13.707 43.7142 11.9999C43.8217 10.1244 43.6498 8.2433 43.2062 6.41787ZM19.8642 11.4919C19.8138 13.7256 19.4726 15.9433 18.8492 18.0889C16.7523 18.9111 14.4992 19.2577 12.2522 19.1039C10.0184 19.0534 7.80078 18.7122 5.65518 18.0889C4.833 15.992 4.48633 13.7389 4.64018 11.4919C4.6906 9.25812 5.03181 7.04046 5.65518 4.89487C7.75202 4.07268 10.0052 3.72601 12.2522 3.87987C14.4859 3.93029 16.7036 4.27149 18.8492 4.89487C19.4345 7.04871 19.7749 9.2617 19.8642 11.4919Z" fill="#FF4A00"/>
</g>
</g>
</g>
<defs>
<clipPath id="clip0_295_3842">
<rect width="24" height="24" fill="white"/>
</clipPath>
<clipPath id="clip1_295_3842">
<rect width="24" height="24" fill="white"/>
</clipPath>
<clipPath id="clip2_295_3842">
<rect width="64" height="64" fill="white" transform="translate(-20 -20)"/>
</clipPath>
</defs>
</svg>
