<svg width="22" height="22" viewBox="0 0 22 22" fill="none" xmlns="http://www.w3.org/2000/svg">
<g clip-path="url(#clip0_295_1921)">
<g clip-path="url(#clip1_295_1921)">
<g clip-path="url(#clip2_295_1921)">
<path fill-rule="evenodd" clip-rule="evenodd" d="M10.8519 20.69H10.5454C10.4736 20.6535 10.402 20.6166 10.33 20.5805C7.47752 19.152 4.62554 17.7224 1.77169 16.2965C1.4766 16.1491 1.34039 15.9306 1.34089 15.5954C1.34576 12.42 1.34657 9.24459 1.33985 6.06921C1.33912 5.72219 1.47849 5.50962 1.78347 5.35982C2.8939 4.81453 3.99919 4.25871 5.10348 3.70105C5.21356 3.64549 5.29285 3.6488 5.40147 3.70525C8.29387 5.20929 11.188 6.71001 14.0842 8.20653C14.2102 8.27165 14.2536 8.34357 14.2531 8.48469C14.2478 9.96652 14.2494 11.4484 14.2502 12.9303C14.2503 13.2229 14.3748 13.2984 14.6349 13.1629C15.1442 12.8977 15.6479 12.6213 16.1626 12.3673C16.3688 12.2655 16.4466 12.1328 16.4453 11.9032C16.4374 10.4343 16.4337 8.96512 16.4483 7.49625C16.4509 7.23251 16.3691 7.09976 16.1377 6.98134C13.315 5.53746 10.4977 4.08297 7.67926 2.63091C7.62153 2.60118 7.56576 2.56771 7.48808 2.52421C7.57724 2.47648 7.63228 2.44525 7.68878 2.41706C8.55609 1.98448 9.42683 1.55872 10.2892 1.11646C10.5885 0.963034 10.8554 0.960566 11.1589 1.11283C13.9926 2.53455 16.829 3.95094 19.6703 5.35731C20.0019 5.52142 20.1353 5.74363 20.1345 6.10927C20.127 9.24617 20.1265 12.3831 20.1348 15.52C20.1359 15.9039 19.9848 16.1374 19.6468 16.3042C17.4792 17.3746 15.316 18.4541 13.1524 19.5326C12.3841 19.9156 11.6186 20.3041 10.8519 20.69Z" fill="black"/>
</g>
</g>
</g>
<defs>
<clipPath id="clip0_295_1921">
<rect width="21.48" height="21.48" fill="white"/>
</clipPath>
<clipPath id="clip1_295_1921">
<rect width="21.48" height="21.48" fill="white"/>
</clipPath>
<clipPath id="clip2_295_1921">
<rect width="21.48" height="21.48" fill="white"/>
</clipPath>
</defs>
</svg>
