<svg width="22" height="22" viewBox="0 0 22 22" fill="none" xmlns="http://www.w3.org/2000/svg">
<g clip-path="url(#clip0_295_2019)">
<g clip-path="url(#clip1_295_2019)">
<path d="M12.5291 5.37004H14.3191V7.16004H18.7941C19.0314 7.16004 19.2591 7.25433 19.4269 7.42218C19.5948 7.59002 19.6891 7.81767 19.6891 8.05504V14.7675L14.3191 11.635L14.3513 18.8505L16.3409 16.9263L17.9358 19.69H8.05406C7.81669 19.69 7.58905 19.5957 7.4212 19.4279C7.25336 19.2601 7.15906 19.0324 7.15906 18.795V14.32H5.36906V12.53H7.15906V8.05504C7.15906 7.81767 7.25336 7.59002 7.4212 7.42218C7.58905 7.25433 7.81669 7.16004 8.05406 7.16004H12.5291V5.37004ZM19.6891 15.5175V18.795C19.6891 18.8883 19.6747 18.981 19.6461 19.0698L17.8919 16.0322L19.6891 15.5175ZM3.57906 12.53V14.32H1.78906V12.53H3.57906ZM3.57906 8.95004V10.74H1.78906V8.95004H3.57906ZM3.57906 5.37004V7.16004H1.78906V5.37004H3.57906ZM3.57906 1.79004V3.58004H1.78906V1.79004H3.57906ZM7.15906 1.79004V3.58004H5.36906V1.79004H7.15906ZM10.7391 1.79004V3.58004H8.94906V1.79004H10.7391ZM14.3191 1.79004V3.58004H12.5291V1.79004H14.3191Z" fill="black"/>
</g>
</g>
<defs>
<clipPath id="clip0_295_2019">
<rect width="21.48" height="21.48" fill="white"/>
</clipPath>
<clipPath id="clip1_295_2019">
<rect width="21.48" height="21.48" fill="white"/>
</clipPath>
</defs>
</svg>
