<svg width="22" height="22" viewBox="0 0 22 22" fill="none" xmlns="http://www.w3.org/2000/svg">
<g clip-path="url(#clip0_295_2043)">
<g clip-path="url(#clip1_295_2043)">
<path d="M15.0355 17.005L12.5295 20.1375L10.0235 17.005H5.36953C5.13216 17.005 4.90452 16.9107 4.73667 16.7429C4.56883 16.5751 4.47453 16.3474 4.47453 16.11V6.35722C4.47453 6.11986 4.56883 5.89221 4.73667 5.72436C4.90452 5.55652 5.13216 5.46222 5.36953 5.46222H19.6895C19.9269 5.46222 20.1545 5.55652 20.3224 5.72436C20.4902 5.89221 20.5845 6.11986 20.5845 6.35722V16.11C20.5845 16.3474 20.4902 16.5751 20.3224 16.7429C20.1545 16.9107 19.9269 17.005 19.6895 17.005H15.0355ZM1.78953 1.79004H17.0045V3.58004H2.68453V13.425H0.894531V2.68504C0.894531 2.44767 0.988826 2.22002 1.15667 2.05218C1.32452 1.88433 1.55216 1.79004 1.78953 1.79004Z" fill="black"/>
</g>
</g>
<defs>
<clipPath id="clip0_295_2043">
<rect width="21.48" height="21.48" fill="white"/>
</clipPath>
<clipPath id="clip1_295_2043">
<rect width="21.48" height="21.48" fill="white"/>
</clipPath>
</defs>
</svg>
