<svg width="22" height="22" viewBox="0 0 22 22" fill="none" xmlns="http://www.w3.org/2000/svg">
<g clip-path="url(#clip0_295_2027)">
<g clip-path="url(#clip1_295_2027)">
<path d="M17.0041 19.69H4.47406C3.76196 19.69 3.07902 19.4072 2.57548 18.9036C2.07195 18.4001 1.78906 17.7171 1.78906 17.005V2.68504C1.78906 2.44767 1.88336 2.22002 2.0512 2.05218C2.21905 1.88433 2.44669 1.79004 2.68406 1.79004H15.2141C15.4514 1.79004 15.6791 1.88433 15.8469 2.05218C16.0148 2.22002 16.1091 2.44767 16.1091 2.68504V13.425H19.6891V17.005C19.6891 17.7171 19.4062 18.4001 18.9026 18.9036C18.3991 19.4072 17.7162 19.69 17.0041 19.69ZM16.1091 15.215V17.005C16.1091 17.2424 16.2034 17.4701 16.3712 17.6379C16.539 17.8057 16.7667 17.9 17.0041 17.9C17.2414 17.9 17.4691 17.8057 17.6369 17.6379C17.8048 17.4701 17.8991 17.2424 17.8991 17.005V15.215H16.1091ZM5.36906 6.26504V8.05504H12.5291V6.26504H5.36906ZM5.36906 9.84504V11.635H12.5291V9.84504H5.36906ZM5.36906 13.425V15.215H9.84406V13.425H5.36906Z" fill="black"/>
</g>
</g>
<defs>
<clipPath id="clip0_295_2027">
<rect width="21.48" height="21.48" fill="white"/>
</clipPath>
<clipPath id="clip1_295_2027">
<rect width="21.48" height="21.48" fill="white"/>
</clipPath>
</defs>
</svg>
