<svg width="22" height="22" viewBox="0 0 22 22" fill="none" xmlns="http://www.w3.org/2000/svg">
<g clip-path="url(#clip0_295_2067)">
<g clip-path="url(#clip1_295_2067)">
<path d="M19.6891 7.15957V17.8996C19.6891 18.1369 19.5948 18.3646 19.4269 18.5324C19.2591 18.7003 19.0314 18.7946 18.7941 18.7946H2.68406C2.44669 18.7946 2.21905 18.7003 2.0512 18.5324C1.88336 18.3646 1.78906 18.1369 1.78906 17.8996V6.26457H18.7941C19.0314 6.26457 19.2591 6.35887 19.4269 6.52671C19.5948 6.69456 19.6891 6.9222 19.6891 7.15957ZM11.1096 4.47457H1.78906V3.57957C1.78906 3.3422 1.88336 3.11455 2.0512 2.94671C2.21905 2.77886 2.44669 2.68457 2.68406 2.68457H9.31959L11.1096 4.47457Z" fill="black"/>
</g>
</g>
<defs>
<clipPath id="clip0_295_2067">
<rect width="21.48" height="21.48" fill="white"/>
</clipPath>
<clipPath id="clip1_295_2067">
<rect width="21.48" height="21.48" fill="white"/>
</clipPath>
</defs>
</svg>
