<svg width="22" height="22" viewBox="0 0 22 22" fill="none" xmlns="http://www.w3.org/2000/svg">
<g clip-path="url(#clip0_295_2075)">
<g clip-path="url(#clip1_295_2075)">
<path d="M11.6359 18.7949H16.1109V20.5849H5.37093V18.7949H9.84593V17.8552C8.42689 17.7127 7.06243 17.2332 5.86619 16.4567C4.66995 15.6802 3.67656 14.629 2.96875 13.3909L4.52336 12.5031C5.07002 13.4583 5.8295 14.2746 6.74283 14.8886C7.65616 15.5027 8.69875 15.8979 9.78961 16.0436C10.8805 16.1893 11.9902 16.0816 13.0327 15.7289C14.0752 15.3761 15.0223 14.7877 15.8005 14.0095C16.5788 13.2313 17.1671 12.2842 17.5199 11.2417C17.8726 10.1992 17.9803 9.08946 17.8346 7.9986C17.6889 6.90773 17.2937 5.86515 16.6796 4.95182C16.0656 4.03849 15.2493 3.279 14.2941 2.73235L15.1819 1.17773C16.5522 1.96045 17.6911 3.0917 18.4829 4.45669C19.2748 5.82168 19.6916 7.37185 19.6909 8.94991C19.6909 13.5905 16.1584 17.4068 11.6359 17.8552V18.7949ZM10.7409 15.2149C9.9182 15.2149 9.10352 15.0529 8.34342 14.738C7.58331 14.4232 6.89266 13.9617 6.31091 13.3799C5.72915 12.7982 5.26767 12.1075 4.95282 11.3474C4.63798 10.5873 4.47593 9.77265 4.47593 8.94991C4.47593 8.12718 4.63798 7.31251 4.95282 6.5524C5.26767 5.7923 5.72915 5.10165 6.31091 4.51989C6.89266 3.93813 7.58331 3.47666 8.34342 3.16181C9.10352 2.84696 9.9182 2.68491 10.7409 2.68491C12.4025 2.68491 13.996 3.34497 15.171 4.51989C16.3459 5.69481 17.0059 7.28833 17.0059 8.94991C17.0059 10.6115 16.3459 12.205 15.171 13.3799C13.996 14.5549 12.4025 15.2149 10.7409 15.2149Z" fill="black"/>
</g>
</g>
<defs>
<clipPath id="clip0_295_2075">
<rect width="21.48" height="21.48" fill="white"/>
</clipPath>
<clipPath id="clip1_295_2075">
<rect width="21.48" height="21.48" fill="white"/>
</clipPath>
</defs>
</svg>
