<svg width="22" height="22" viewBox="0 0 22 22" fill="none" xmlns="http://www.w3.org/2000/svg">
<g clip-path="url(#clip0_295_2083)">
<g clip-path="url(#clip1_295_2083)">
<path d="M1.83594 11.6351H6.73785C6.891 14.4694 7.79444 17.2122 9.35573 19.5827C7.40009 19.2755 5.60138 18.3289 4.24082 16.8909C2.88026 15.453 2.03455 13.6047 1.83594 11.6351ZM1.83594 9.84506C2.03455 7.87544 2.88026 6.02715 4.24082 4.58918C5.60138 3.15122 7.40009 2.20465 9.35573 1.89746C7.79444 4.26797 6.891 7.01073 6.73785 9.84506H1.83594ZM19.6464 9.84506H14.7445C14.5914 7.01073 13.6879 4.26797 12.1266 1.89746C14.0823 2.20465 15.881 3.15122 17.2416 4.58918C18.6021 6.02715 19.4478 7.87544 19.6464 9.84506ZM19.6464 11.6351C19.4478 13.6047 18.6021 15.453 17.2416 16.8909C15.881 18.3289 14.0823 19.2755 12.1266 19.5827C13.6879 17.2122 14.5914 14.4694 14.7445 11.6351H19.6464ZM8.53054 11.6351H12.9518C12.8045 14.0511 12.0437 16.3897 10.7412 18.4299C9.43869 16.3897 8.67785 14.0511 8.53054 11.6351ZM8.53054 9.84506C8.67785 7.42902 9.43869 5.09043 10.7412 3.05022C12.0437 5.09043 12.8045 7.42902 12.9518 9.84506H8.53054Z" fill="black"/>
</g>
</g>
<defs>
<clipPath id="clip0_295_2083">
<rect width="21.48" height="21.48" fill="white"/>
</clipPath>
<clipPath id="clip1_295_2083">
<rect width="21.48" height="21.48" fill="white"/>
</clipPath>
</defs>
</svg>
