<svg width="22" height="22" viewBox="0 0 22 22" fill="none" xmlns="http://www.w3.org/2000/svg">
<g clip-path="url(#clip0_295_2011)">
<g clip-path="url(#clip1_295_2011)">
<path d="M12.5286 8.94957V12.5296H8.94859V8.94957H12.5286ZM14.3186 8.94957H18.7936V12.5296H14.3186V8.94957ZM12.5286 18.7946H8.94859V14.3196H12.5286V18.7946ZM14.3186 18.7946V14.3196H18.7936V17.8996C18.7936 18.1369 18.6993 18.3646 18.5315 18.5324C18.3636 18.7003 18.136 18.7946 17.8986 18.7946H14.3186ZM12.5286 2.68457V7.15957H8.94859V2.68457H12.5286ZM14.3186 2.68457H17.8986C18.136 2.68457 18.3636 2.77886 18.5315 2.94671C18.6993 3.11455 18.7936 3.3422 18.7936 3.57957V7.15957H14.3186V2.68457ZM7.15859 8.94957V12.5296H2.68359V8.94957H7.15859ZM7.15859 18.7946H3.57859C3.34123 18.7946 3.11358 18.7003 2.94573 18.5324C2.77789 18.3646 2.68359 18.1369 2.68359 17.8996V14.3196H7.15859V18.7946ZM7.15859 2.68457V7.15957H2.68359V3.57957C2.68359 3.3422 2.77789 3.11455 2.94573 2.94671C3.11358 2.77886 3.34123 2.68457 3.57859 2.68457H7.15859Z" fill="black"/>
</g>
</g>
<defs>
<clipPath id="clip0_295_2011">
<rect width="21.48" height="21.48" fill="white"/>
</clipPath>
<clipPath id="clip1_295_2011">
<rect width="21.48" height="21.48" fill="white"/>
</clipPath>
</defs>
</svg>
