<svg width="22" height="22" viewBox="0 0 22 22" fill="none" xmlns="http://www.w3.org/2000/svg">
<g clip-path="url(#clip0_295_2091)">
<path d="M10.739 1.79004C15.6821 1.79004 19.6891 5.79696 19.6891 10.74C19.6891 15.6831 15.6821 19.6901 10.739 19.6901C5.79598 19.6901 1.78906 15.6831 1.78906 10.74C1.78906 5.79696 5.79598 1.79004 10.739 1.79004ZM7.89565 13.732C7.54213 13.3051 7.10269 13.153 6.57192 13.2765L6.43767 13.3132L5.90965 14.2225C5.81007 14.3846 5.77707 14.579 5.81758 14.7649C5.85814 14.9508 5.96902 15.1138 6.12703 15.2198C6.28508 15.3257 6.47797 15.3665 6.66536 15.3334C6.85271 15.3003 7.02004 15.196 7.1322 15.0423L7.18771 14.9591L7.89474 13.732H7.89565ZM11.822 7.75074C11.3852 8.11233 10.9449 9.18006 11.5625 10.2451L14.2832 14.9582C14.3775 15.1183 14.5287 15.2369 14.7066 15.2904C14.8845 15.3439 15.076 15.3283 15.2429 15.2466C15.4098 15.165 15.5397 15.0234 15.6067 14.8501C15.6737 14.6768 15.6729 14.4846 15.6043 14.312L15.5604 14.2225L14.8426 12.9767H15.9077C16.0044 12.9769 16.1003 12.958 16.1897 12.9211C16.2791 12.8841 16.3604 12.8298 16.4287 12.7614C16.4971 12.6929 16.5513 12.6116 16.5881 12.5221C16.6249 12.4327 16.6437 12.3368 16.6434 12.2401C16.6438 12.0606 16.5785 11.8872 16.4598 11.7526C16.341 11.618 16.1771 11.5316 15.999 11.5097L15.9068 11.5044H13.9915L12.0278 8.10606L11.822 7.75164V7.75074ZM12.0708 5.02634C11.9163 4.93759 11.7348 4.90769 11.56 4.94227C11.3851 4.97681 11.2286 5.07343 11.1195 5.21429L11.0639 5.29665L10.7355 5.86321L10.4142 5.29665C10.32 5.13654 10.1688 5.01788 9.99085 4.9644C9.81295 4.91091 9.62139 4.92655 9.45454 5.00817C9.28764 5.08984 9.15772 5.23144 9.09071 5.40474C9.02373 5.57799 9.02459 5.7702 9.09316 5.94285L9.13702 6.03234L9.88701 7.33635L7.48396 11.5008H5.60712C5.51046 11.5005 5.41466 11.5194 5.32531 11.5563C5.23595 11.5932 5.15476 11.6474 5.08641 11.7157C5.01801 11.7841 4.96384 11.8653 4.92698 11.9547C4.89008 12.044 4.87122 12.1398 4.87143 12.2365C4.87143 12.6133 5.15067 12.922 5.51493 12.9677L5.60712 12.9731H12.3017C12.606 12.4003 12.248 11.5867 11.5768 11.5071L11.4685 11.5008H9.18354L12.3411 6.03234C12.4387 5.86308 12.465 5.66202 12.4143 5.47339C12.3636 5.28471 12.2401 5.12391 12.0708 5.02634Z" fill="black"/>
</g>
<defs>
<clipPath id="clip0_295_2091">
<rect width="21.48" height="21.48" fill="white"/>
</clipPath>
</defs>
</svg>
