<svg width="22" height="22" viewBox="0 0 22 22" fill="none" xmlns="http://www.w3.org/2000/svg">
<g clip-path="url(#clip0_295_1914)">
<g clip-path="url(#clip1_295_1914)">
<path d="M2.68406 2.68457H18.7941C19.0314 2.68457 19.2591 2.77886 19.4269 2.94671C19.5948 3.11455 19.6891 3.3422 19.6891 3.57957V17.8996C19.6891 18.1369 19.5948 18.3646 19.4269 18.5324C19.2591 18.7003 19.0314 18.7946 18.7941 18.7946H2.68406C2.44669 18.7946 2.21905 18.7003 2.0512 18.5324C1.88336 18.3646 1.78906 18.1369 1.78906 17.8996V3.57957C1.78906 3.3422 1.88336 3.11455 2.0512 2.94671C2.21905 2.77886 2.44669 2.68457 2.68406 2.68457ZM10.7928 10.4559L5.05402 5.58258L3.895 6.94656L10.8044 12.8133L17.5894 6.94209L16.4187 5.58795L10.7928 10.4559Z" fill="black"/>
</g>
</g>
<defs>
<clipPath id="clip0_295_1914">
<rect width="21.48" height="21.48" fill="white"/>
</clipPath>
<clipPath id="clip1_295_1914">
<rect width="21.48" height="21.48" fill="white"/>
</clipPath>
</defs>
</svg>
