<svg width="22" height="22" viewBox="0 0 22 22" fill="none" xmlns="http://www.w3.org/2000/svg">
<g clip-path="url(#clip0_295_1968)">
<g clip-path="url(#clip1_295_1968)">
<path d="M16.4344 15.5407L10.7386 21.2365L5.04282 15.5407C3.91632 14.4142 3.14916 12.979 2.83836 11.4165C2.52757 9.85394 2.68709 8.23435 3.29676 6.7625C3.90642 5.29065 4.93885 4.03263 6.26349 3.14754C7.58813 2.26245 9.14547 1.79004 10.7386 1.79004C12.3317 1.79004 13.8891 2.26245 15.2137 3.14754C16.5383 4.03263 17.5708 5.29065 18.1804 6.7625C18.7901 8.23435 18.9496 9.85394 18.6388 11.4165C18.328 12.979 17.5609 14.4142 16.4344 15.5407ZM10.7386 13.425C11.6881 13.425 12.5987 13.0478 13.27 12.3764C13.9414 11.705 14.3186 10.7944 14.3186 9.84497C14.3186 8.89549 13.9414 7.98491 13.27 7.31353C12.5987 6.64215 11.6881 6.26497 10.7386 6.26497C9.78912 6.26497 8.87853 6.64215 8.20715 7.31353C7.53577 7.98491 7.1586 8.89549 7.1586 9.84497C7.1586 10.7944 7.53577 11.705 8.20715 12.3764C8.87853 13.0478 9.78912 13.425 10.7386 13.425ZM10.7386 11.635C10.2639 11.635 9.80857 11.4464 9.47288 11.1107C9.13719 10.775 8.9486 10.3197 8.9486 9.84497C8.9486 9.37023 9.13719 8.91494 9.47288 8.57925C9.80857 8.24356 10.2639 8.05497 10.7386 8.05497C11.2133 8.05497 11.6686 8.24356 12.0043 8.57925C12.34 8.91494 12.5286 9.37023 12.5286 9.84497C12.5286 10.3197 12.34 10.775 12.0043 11.1107C11.6686 11.4464 11.2133 11.635 10.7386 11.635Z" fill="black"/>
</g>
</g>
<defs>
<clipPath id="clip0_295_1968">
<rect width="21.48" height="21.48" fill="white"/>
</clipPath>
<clipPath id="clip1_295_1968">
<rect width="21.48" height="21.48" fill="white"/>
</clipPath>
</defs>
</svg>
