<svg width="22" height="22" viewBox="0 0 22 22" fill="none" xmlns="http://www.w3.org/2000/svg">
<g clip-path="url(#clip0_295_1932)">
<g clip-path="url(#clip1_295_1932)">
<path d="M10.7391 19.69C5.79598 19.69 1.78906 15.6831 1.78906 10.74C1.78906 5.79695 5.79598 1.79004 10.7391 1.79004C15.6821 1.79004 19.6891 5.79695 19.6891 10.74C19.6891 15.6831 15.6821 19.69 10.7391 19.69ZM6.26406 10.74C6.26406 11.9269 6.73553 13.0651 7.57476 13.9043C8.41398 14.7436 9.55222 15.215 10.7391 15.215C11.9259 15.215 13.0641 14.7436 13.9034 13.9043C14.7426 13.0651 15.2141 11.9269 15.2141 10.74H13.4241C13.4241 11.4521 13.1412 12.1351 12.6376 12.6386C12.1341 13.1422 11.4512 13.425 10.7391 13.425C10.027 13.425 9.34402 13.1422 8.84048 12.6386C8.33695 12.1351 8.05406 11.4521 8.05406 10.74H6.26406Z" fill="black"/>
</g>
</g>
<defs>
<clipPath id="clip0_295_1932">
<rect width="21.48" height="21.48" fill="white"/>
</clipPath>
<clipPath id="clip1_295_1932">
<rect width="21.48" height="21.48" fill="white"/>
</clipPath>
</defs>
</svg>
