<svg width="22" height="22" viewBox="0 0 22 22" fill="none" xmlns="http://www.w3.org/2000/svg">
<g clip-path="url(#clip0_295_1992)">
<path d="M5.36859 3.58004V7.16004H16.1086V3.58004H17.9045C18.3955 3.58004 18.7936 3.97827 18.7936 4.46913V18.8009C18.7936 19.2919 18.3954 19.69 17.9045 19.69H3.57269C3.08165 19.69 2.68359 19.2919 2.68359 18.8009V4.46913C2.68359 3.9781 3.08182 3.58004 3.57269 3.58004H5.36859ZM8.05359 15.215H6.26359V17.005H8.05359V15.215ZM8.05359 12.53H6.26359V14.32H8.05359V12.53ZM8.05359 9.84504H6.26359V11.635H8.05359V9.84504ZM14.3186 1.79004V5.37004H7.15859V1.79004H14.3186Z" fill="black"/>
</g>
<defs>
<clipPath id="clip0_295_1992">
<rect width="21.48" height="21.48" fill="white"/>
</clipPath>
</defs>
</svg>
