<svg width="22" height="22" viewBox="0 0 22 22" fill="none" xmlns="http://www.w3.org/2000/svg">
<g clip-path="url(#clip0_295_1976)">
<g clip-path="url(#clip1_295_1976)">
<path d="M7.15953 4.47461H14.3195C15.9811 4.47461 17.5746 5.13467 18.7496 6.30959C19.9245 7.4845 20.5845 9.07803 20.5845 10.7396C20.5845 12.4012 19.9245 13.9947 18.7496 15.1696C17.5746 16.3445 15.9811 17.0046 14.3195 17.0046H7.15953C5.49795 17.0046 3.90442 16.3445 2.72951 15.1696C1.55459 13.9947 0.894531 12.4012 0.894531 10.7396C0.894531 9.07803 1.55459 7.4845 2.72951 6.30959C3.90442 5.13467 5.49795 4.47461 7.15953 4.47461ZM14.3195 13.4246C15.0316 13.4246 15.7146 13.1417 16.2181 12.6382C16.7216 12.1347 17.0045 11.4517 17.0045 10.7396C17.0045 10.0275 16.7216 9.34456 16.2181 8.84103C15.7146 8.33749 15.0316 8.05461 14.3195 8.05461C13.6074 8.05461 12.9245 8.33749 12.4209 8.84103C11.9174 9.34456 11.6345 10.0275 11.6345 10.7396C11.6345 11.4517 11.9174 12.1347 12.4209 12.6382C12.9245 13.1417 13.6074 13.4246 14.3195 13.4246Z" fill="black"/>
</g>
</g>
<defs>
<clipPath id="clip0_295_1976">
<rect width="21.48" height="21.48" fill="white"/>
</clipPath>
<clipPath id="clip1_295_1976">
<rect width="21.48" height="21.48" fill="white"/>
</clipPath>
</defs>
</svg>
