<svg width="22" height="22" viewBox="0 0 22 22" fill="none" xmlns="http://www.w3.org/2000/svg">
<g clip-path="url(#clip0_295_2052)">
<g clip-path="url(#clip1_295_2052)">
<g clip-path="url(#clip2_295_2052)">
<path fill-rule="evenodd" clip-rule="evenodd" d="M1.39037 18.7238C1.02549 18.5694 0.890494 18.2995 0.894623 17.8996C0.922736 15.245 2.6774 12.7001 5.17774 11.7151C8.60791 10.3638 12.3677 11.8591 13.9332 15.2027C14.3254 16.0403 14.5213 16.9274 14.5699 17.8518C14.5914 18.2598 14.462 18.5562 14.0804 18.7238H1.39037Z" fill="black"/>
<path fill-rule="evenodd" clip-rule="evenodd" d="M8.10385 2.68457C8.34796 2.7411 8.59622 2.78384 8.83549 2.85645C10.375 3.32359 11.6352 4.84497 11.455 6.80766C11.3064 8.42585 10.1056 9.83491 8.36211 10.14C6.29696 10.5014 4.35044 9.08394 4.02055 6.99496C3.69911 4.95938 5.17726 2.98456 7.21562 2.72469C7.25353 2.71985 7.2893 2.69831 7.32609 2.68457H8.10385Z" fill="black"/>
<path fill-rule="evenodd" clip-rule="evenodd" d="M20.5481 16.3859C20.3835 16.7565 20.0967 16.884 19.6977 16.8792C18.4702 16.8645 17.2423 16.8715 16.0147 16.8767C15.8505 16.8774 15.7745 16.854 15.7389 16.6594C15.4092 14.8582 14.5939 13.3174 13.241 12.0731C13.2118 12.0462 13.1873 12.0143 13.1523 11.9756C13.9562 11.5032 14.8113 11.2666 15.7317 11.2919C18.148 11.358 20.0892 13.0562 20.4958 15.4511C20.5116 15.5442 20.5306 15.6368 20.5481 15.7295V16.3859Z" fill="black"/>
<path fill-rule="evenodd" clip-rule="evenodd" d="M18.4171 7.73013C18.4171 9.27665 17.1804 10.5179 15.639 10.5186C14.0854 10.5193 12.8502 9.27879 12.8516 7.71921C12.8529 6.17683 14.0937 4.94059 15.6396 4.94141C17.1814 4.94223 18.4171 6.18294 18.4171 7.73013Z" fill="black"/>
</g>
</g>
</g>
<defs>
<clipPath id="clip0_295_2052">
<rect width="21.48" height="21.48" fill="white"/>
</clipPath>
<clipPath id="clip1_295_2052">
<rect width="21.48" height="21.48" fill="white"/>
</clipPath>
<clipPath id="clip2_295_2052">
<rect width="21.48" height="21.48" fill="white"/>
</clipPath>
</defs>
</svg>
