<svg width="22" height="22" viewBox="0 0 22 22" fill="none" xmlns="http://www.w3.org/2000/svg">
<g clip-path="url(#clip0_295_1958)">
<g clip-path="url(#clip1_295_1958)">
<path fill-rule="evenodd" clip-rule="evenodd" d="M5.78587 10.0965V12.0239C4.9411 12.0719 4.20603 12.3564 3.64051 12.9917C2.89282 13.8319 2.66517 14.81 3.00893 15.8745C3.35262 16.9386 4.10529 17.6251 5.20512 17.8503C7.07004 18.232 8.72864 16.8592 8.74925 14.9528L8.7507 14.7242L8.7501 14.2502C8.74989 14.168 8.74971 14.0837 8.74971 13.9966H12.058C12.3742 13.9966 12.6908 13.9856 13.0064 13.9993C13.5169 14.0216 13.9381 13.9832 14.3475 13.5345C14.9635 12.8593 15.9769 12.8485 16.711 13.3502C17.4669 13.8668 17.7555 14.7599 17.4548 15.6526C17.1859 16.4512 16.3419 17.0031 15.4601 16.9327C14.9154 16.8892 14.448 16.6542 14.1248 16.2094C13.9757 16.0042 13.8193 15.952 13.582 15.9551C12.6025 15.9675 11.6229 15.9603 10.6264 15.9603C10.2534 17.5248 9.37331 18.6856 7.93797 19.3897C6.79647 19.9498 5.60075 20.0306 4.3816 19.6751C2.01952 18.9864 0.504244 16.4875 0.982756 14.0645C1.49849 11.4532 3.81144 10.0249 5.78587 10.0965ZM11.3717 4.62965C12.4189 5.03019 12.9304 6.18019 12.5077 7.22507C12.4341 7.40725 12.4338 7.53265 12.5338 7.70084C13.0445 8.55954 13.5411 9.42662 14.0405 10.2871C17.5245 9.32824 19.8768 11.7036 20.3908 13.7393C20.9845 16.0906 19.7366 18.617 17.49 19.5176C15.1876 20.4405 12.541 19.542 11.3736 17.4232C11.9357 17.1021 12.498 16.7807 13.0737 16.4518C13.5835 17.2666 14.2926 17.7274 15.2156 17.8887C17.0464 18.2088 18.8359 16.4562 18.5389 14.6178C18.1876 12.4423 16.0089 11.3923 14.084 12.471C13.8294 12.6136 13.5756 12.7576 13.2874 12.9201C12.6527 11.8166 12.0405 10.7523 11.4283 9.68809L11.2616 9.40688C11.2348 9.35958 11.2091 9.31171 11.1859 9.26269C10.9548 8.77515 10.6645 8.44624 10.0689 8.29553C9.02507 8.03131 8.51261 6.83049 8.8841 5.79947C9.25383 4.77337 10.3723 4.24737 11.3717 4.62965ZM13.8769 2.72327C15.8336 4.37311 16.072 7.16987 14.9484 8.91764C14.3958 8.60207 13.8415 8.28553 13.2671 7.9576C13.5978 7.30025 13.7283 6.62895 13.598 5.90284C13.3663 4.61181 12.1105 3.54567 10.7663 3.53455C9.34523 3.52277 8.06296 4.5547 7.83492 5.89356C7.60793 7.22646 8.12569 8.35212 9.28936 9.05115C9.53166 9.19677 9.77762 9.33623 10.021 9.48014C10.0378 9.49009 10.0466 9.51357 10.0764 9.55446C9.608 10.361 9.1344 11.1781 8.65942 11.9943C8.32024 12.5771 7.98479 13.1622 7.6358 13.7391C7.53081 13.9126 7.5225 14.0508 7.60289 14.2458C8.02744 15.2756 7.51223 16.4215 6.47088 16.807C5.45263 17.1842 4.33187 16.6463 3.96515 15.6046C3.54917 14.4229 4.32794 13.2044 5.61388 13.0145C5.70736 13.0007 5.83171 12.9509 5.87495 12.8781C6.40743 11.9818 6.92748 11.0782 7.44819 10.1808C5.16382 8.00967 5.41959 4.84017 7.20713 3.03622C9.0262 1.2004 11.9172 1.07088 13.8769 2.72327Z" fill="black"/>
</g>
</g>
<defs>
<clipPath id="clip0_295_1958">
<rect width="21.48" height="21.48" fill="white"/>
</clipPath>
<clipPath id="clip1_295_1958">
<rect width="21.48" height="21.48" fill="white"/>
</clipPath>
</defs>
</svg>
