<?xml version="1.0" encoding="utf-8"?>
<!-- Generator: Adobe Illustrator 24.0.2, SVG Export Plug-In . SVG Version: 6.00 Build 0)  -->
<svg version="1.1" id="Layer_1" xmlns="http://www.w3.org/2000/svg" xmlns:xlink="http://www.w3.org/1999/xlink" x="0px" y="0px"
	 viewBox="0 0 1920 350" style="enable-background:new 0 0 1920 350;" xml:space="preserve">
<style type="text/css">
	.st0{fill:url(#SVGID_1_);}
	.st1{fill:url(#SVGID_2_);}
	.st2{fill:url(#SVGID_3_);}
	.st3{fill:url(#SVGID_4_);}
	.st4{fill:url(#SVGID_5_);}
	.st5{fill:url(#SVGID_6_);}
	.st6{fill:url(#SVGID_7_);}
	.st7{fill:url(#SVGID_8_);}
	.st8{fill:url(#SVGID_9_);}
	.st9{fill:#2E3A59;}
</style>
<g>
	<g>
		<linearGradient id="SVGID_1_" gradientUnits="userSpaceOnUse" x1="87.5296" y1="185.6363" x2="291.519" y2="318.9627">
			<stop  offset="0" style="stop-color:#8A42F3"/>
			<stop  offset="0.226" style="stop-color:#5D6CE9"/>
			<stop  offset="0.4617" style="stop-color:#3591E0"/>
			<stop  offset="0.6774" style="stop-color:#18ACD9"/>
			<stop  offset="0.8639" style="stop-color:#06BCD5"/>
			<stop  offset="1" style="stop-color:#00C2D4"/>
		</linearGradient>
		<path class="st0" d="M116.71,302.69c-4.44,1.42-7.92,0.35-11.37-0.27c-37.66-6.72-63.33-37.24-63.34-75.34
			c0-35.95,0-71.92,0.04-107.88c0.01-9.75,1.3-19.31,4.4-28.61c4.22-12.64,11.2-22.07,20.24-28.92c1.43,0.5,2.89,1.05,4.38,1.67
			c0.08,0.04,0.18,0.07,0.27,0.11c10.75,4.51,20.15,11.77,27.51,20.83l11.53,14.18c-0.82-0.85-1.75-1.75-2.74-2.8
			c-1.67,2.63-1.18,4.7-1.18,6.64c-0.12,56.37-0.17,112.72-0.29,169.09C106.14,282.81,108.79,293.33,116.71,302.69z"/>
		<linearGradient id="SVGID_2_" gradientUnits="userSpaceOnUse" x1="166.4236" y1="64.9284" x2="370.413" y2="198.2548">
			<stop  offset="0" style="stop-color:#8A42F3"/>
			<stop  offset="0.226" style="stop-color:#5D6CE9"/>
			<stop  offset="0.4617" style="stop-color:#3591E0"/>
			<stop  offset="0.6774" style="stop-color:#18ACD9"/>
			<stop  offset="0.8639" style="stop-color:#06BCD5"/>
			<stop  offset="1" style="stop-color:#00C2D4"/>
		</linearGradient>
		<path class="st1" d="M320.81,302.69c4.44,1.42,7.92,0.35,11.37-0.27c37.66-6.72,63.33-37.24,63.34-75.34
			c0-35.95,0-71.92-0.04-107.88c-0.01-9.75-1.3-19.31-4.4-28.61c-4.22-12.64-11.2-22.07-20.24-28.92c-1.43,0.5-2.89,1.05-4.38,1.67
			c-0.08,0.04-0.18,0.07-0.27,0.11c-10.75,4.51-20.15,11.77-27.51,20.83l-11.53,14.18c0.82-0.85,1.75-1.75,2.74-2.8
			c1.67,2.63,1.18,4.7,1.18,6.64c0.12,56.37,0.17,112.72,0.29,169.09C331.38,282.81,328.73,293.33,320.81,302.69z"/>
		<linearGradient id="SVGID_3_" gradientUnits="userSpaceOnUse" x1="133.0178" y1="211.0178" x2="204.3474" y2="287.0139">
			<stop  offset="0" style="stop-color:#8A42F3"/>
			<stop  offset="0.226" style="stop-color:#5D6CE9"/>
			<stop  offset="0.4617" style="stop-color:#3591E0"/>
			<stop  offset="0.6774" style="stop-color:#18ACD9"/>
			<stop  offset="0.8639" style="stop-color:#06BCD5"/>
			<stop  offset="1" style="stop-color:#00C2D4"/>
		</linearGradient>
		<path class="st2" d="M277.15,293.95c-38.97-0.63-77.93-0.34-116.91-0.07c-20.01,0.13-31.28-10.96-31.26-30.83
			c0.01-30.1-0.02-60.2,0-90.3c0-1.99-0.44-4.04,1.04-6.91c9.41,8.76,18.39,17.1,27.32,25.49c6.47,6.07,12.95,12.13,19.42,18.2
			l0.5,0.47l79.41,75.15C262.39,290.56,269.73,293.55,277.15,293.95z"/>
		<linearGradient id="SVGID_4_" gradientUnits="userSpaceOnUse" x1="317.3173" y1="167.4279" x2="223.9888" y2="323.8642">
			<stop  offset="0" style="stop-color:#00C2D4"/>
			<stop  offset="0.1361" style="stop-color:#06BCD5"/>
			<stop  offset="0.3226" style="stop-color:#18ACD9"/>
			<stop  offset="0.5383" style="stop-color:#3591E0"/>
			<stop  offset="0.774" style="stop-color:#5D6CE9"/>
			<stop  offset="1" style="stop-color:#8A42F3"/>
		</linearGradient>
		<path class="st3" d="M215.12,245.73c3.39,3.25,5.26,1.93,7.93-0.57c4.34-4.06,8.68-8.12,13.02-12.18
			c21.9-20.51,43.85-40.97,65.85-61.39c2.1-1.94,4.16-5.87,7.02-4.63c2.39,1.04,0.9,5.15,0.9,7.88c0.01,29.07-0.02,58.16-0.17,87.23
			v0.64c-0.01,1.42-0.07,2.81-0.21,4.15c-1.31,13.78-8.89,23.13-21.44,26.29c-2.68,0.67-5.53,0.85-8.32,0.84
			c-0.23-0.01-0.45-0.01-0.68-0.01c-0.62-0.01-1.25-0.02-1.87-0.02c-7.42-0.4-14.75-3.39-20.47-8.8"/>
		<linearGradient id="SVGID_5_" gradientUnits="userSpaceOnUse" x1="132.5847" y1="116.7021" x2="336.574" y2="250.0285">
			<stop  offset="0" style="stop-color:#8A42F3"/>
			<stop  offset="0.226" style="stop-color:#5D6CE9"/>
			<stop  offset="0.4617" style="stop-color:#3591E0"/>
			<stop  offset="0.6774" style="stop-color:#18ACD9"/>
			<stop  offset="0.8639" style="stop-color:#06BCD5"/>
			<stop  offset="1" style="stop-color:#00C2D4"/>
		</linearGradient>
		<line class="st4" x1="123.18" y1="114.26" x2="110.36" y2="98.47"/>
		<linearGradient id="SVGID_6_" gradientUnits="userSpaceOnUse" x1="142.275" y1="101.8759" x2="346.2644" y2="235.2022">
			<stop  offset="0" style="stop-color:#8A42F3"/>
			<stop  offset="0.226" style="stop-color:#5D6CE9"/>
			<stop  offset="0.4617" style="stop-color:#3591E0"/>
			<stop  offset="0.6774" style="stop-color:#18ACD9"/>
			<stop  offset="0.8639" style="stop-color:#06BCD5"/>
			<stop  offset="1" style="stop-color:#00C2D4"/>
		</linearGradient>
		<path class="st5" d="M273.4,166.68c-10.13,11.24-23.12,17.13-38,20.1c-16.05,3.21-31.78,1.41-47.02-4.42
			c-10.74-4.12-19.61-10.43-26.81-19.86c-16.04-21.04-32.9-41.45-49.46-62.08c-0.53-0.67-1.12-1.3-1.75-1.95L98.83,84.28
			c-7.36-9.06-16.75-16.32-27.51-20.83c-0.08-0.04-0.18-0.07-0.27-0.11c-1.49-0.62-2.95-1.18-4.38-1.67
			c8.49-6.46,18.81-10.63,30.37-13.04c27-5.66,51.39,0.36,71.34,20.34c6.44,6.45,10.85,14.55,16.3,21.81
			c4.99,6.66,9.99,13.3,14.95,19.97l0.85,1.14c5.25,7.06,10.45,14.13,15.58,21.27c0.84,1.15,1.54,1.94,2.19,2.39L242,167.18
			c6.62,8.82,19.38,10.29,27.67,3.02c0.06-0.06,0.12-0.11,0.18-0.17C271.11,168.91,272.3,167.79,273.4,166.68z"/>
		<linearGradient id="SVGID_7_" gradientUnits="userSpaceOnUse" x1="95.055" y1="174.1225" x2="299.0444" y2="307.4489">
			<stop  offset="0" style="stop-color:#8A42F3"/>
			<stop  offset="0.226" style="stop-color:#5D6CE9"/>
			<stop  offset="0.4617" style="stop-color:#3591E0"/>
			<stop  offset="0.6774" style="stop-color:#18ACD9"/>
			<stop  offset="0.8639" style="stop-color:#06BCD5"/>
			<stop  offset="1" style="stop-color:#00C2D4"/>
		</linearGradient>
		<path class="st6" d="M279.01,293.97c0.23,0,0.45,0,0.68,0.01c-0.85,0.02-1.7,0.01-2.55-0.04
			C277.76,293.95,278.39,293.96,279.01,293.97z"/>
		<linearGradient id="SVGID_8_" gradientUnits="userSpaceOnUse" x1="117.8983" y1="139.1723" x2="321.8876" y2="272.4987">
			<stop  offset="0" style="stop-color:#8A42F3"/>
			<stop  offset="0.226" style="stop-color:#5D6CE9"/>
			<stop  offset="0.4617" style="stop-color:#3591E0"/>
			<stop  offset="0.6774" style="stop-color:#18ACD9"/>
			<stop  offset="0.8639" style="stop-color:#06BCD5"/>
			<stop  offset="1" style="stop-color:#00C2D4"/>
		</linearGradient>
		<path class="st7" d="M309.86,262.15c-0.02,1.13-0.11,2.75-0.41,4.7c0.13-1.33,0.19-2.73,0.21-4.15v-0.64L309.86,262.15z"/>
		<linearGradient id="SVGID_9_" gradientUnits="userSpaceOnUse" x1="185.3385" y1="35.9887" x2="389.3279" y2="169.315">
			<stop  offset="0" style="stop-color:#8A42F3"/>
			<stop  offset="0.226" style="stop-color:#5D6CE9"/>
			<stop  offset="0.4617" style="stop-color:#3591E0"/>
			<stop  offset="0.6774" style="stop-color:#18ACD9"/>
			<stop  offset="0.8639" style="stop-color:#06BCD5"/>
			<stop  offset="1" style="stop-color:#00C2D4"/>
		</linearGradient>
		<path class="st8" d="M370.47,62.14l-7.92,6.55L331.15,94.7l-2.81,2.33c-5.36,5.75-9.72,11.93-14.41,17.81
			c-9.48,11.89-19.13,23.67-28.31,35.8c-2.64,3.49-5.25,7.01-7.79,10.56c-1.41,1.96-2.87,3.78-4.42,5.49
			c-1.1,1.12-2.29,2.23-3.54,3.35c-0.06,0.06-0.12,0.11-0.18,0.17c-8.29,7.27-21.06,5.81-27.67-3.02l-23.75-31.63
			c1.77,1.25,3.07,0.02,5.04-2.69c2.02-2.78,4.05-5.55,6.09-8.32c11.6-15.78,23.37-31.46,34.95-47.25
			c13.59-18.51,32.22-27.54,54.67-29.47c7.21-0.62,14.23-0.22,21.07,1.07c5.52,0.64,13.55,2.34,21.92,7.19
			c0.32,0.18,0.62,0.36,0.92,0.56c0.04,0.01,0.07,0.04,0.1,0.05c0.84,0.42,1.55,0.87,2.12,1.36c0.02,0.01,0.04,0.02,0.06,0.05
			C367.19,59.43,368.95,60.8,370.47,62.14z"/>
	</g>
	<g>
		<path class="st9" d="M532.75,293.45v-21.71c-17.76,20.4-33.89,26.65-61.19,26.65c-35.86,0-58.56-21.71-58.56-54.94
			c0-23.03,8.88-40.79,31.25-50.99c22.37-10.2,59.88-14.15,83.23-17.44c-2.96-12.83-13.82-22.04-34.21-22.04
			c-17.44,0-32.9,6.58-44.41,16.78l-25.66-29.61c18.75-17.77,41.45-29.28,73.36-29.28c19.41,0,39.15,8.55,51.98,19.41
			c17.44,14.8,23.36,34.87,23.36,57.24v105.93H532.75z M527.49,209.88c-10.53,1.97-27.96,5.59-44.74,9.21
			c-13.49,2.96-25.66,9.21-25.66,21.06c0,12.17,10.86,21.06,25.33,21.06c17.11,0,31.25-8.55,39.15-20.4
			C527.82,231.27,527.49,219.09,527.49,209.88z"/>
		<path class="st9" d="M646.91,51.64v39.48h-44.74V51.64H646.91z M646.91,115.79v177.65h-44.74V115.79H646.91z"/>
		<path class="st9" d="M680.47,293.45V51.64h44.74v241.81H680.47z"/>
		<path class="st9" d="M802.85,241.47c7.24,9.87,19.41,15.13,32.57,15.13c10.53,0,18.75-2.63,25.33-7.9
			c6.58-5.26,9.54-10.2,11.51-14.47l44.74,12.83c-5.92,14.47-17.11,28.29-30.92,37.18c-13.82,8.88-31.58,14.15-48.03,14.15
			c-26.98,0-54.61-10.2-70.73-29.61c-14.47-17.77-21.71-39.15-21.71-61.85c0-25.66,7.57-49.35,21.71-66.46
			c16.45-19.41,41.78-29.61,68.1-29.61c26.32,0,47.05,8.55,63.49,27.96c17.77,20.73,22.04,47.37,19.74,78.3H793.64
			C794.96,226,797.59,234.56,802.85,241.47z M803.18,164.15c-4.61,5.92-6.91,11.84-8.55,18.42h79.29
			c-0.66-7.24-2.63-13.82-7.24-19.74c-6.91-8.88-19.08-13.16-31.25-13.16C823.91,149.68,812.07,152.97,803.18,164.15z"/>
		<path class="st9" d="M1058.81,116.12v41.45c-9.21-3.62-21.39-5.59-34.22-4.61c-12.83,0.99-22.04,5.59-28.29,12.17
			c-7.89,8.55-11.51,20.4-11.51,33.56v94.75h-45.07V115.79h39.48v24.34c4.61-7.9,10.86-14.8,19.08-19.74
			c9.54-5.92,20.4-8.55,30.93-9.21C1038.74,110.53,1048.94,112.17,1058.81,116.12z"/>
		<path class="st9" d="M1246.99,204.62c0,24.34-5.59,47.05-20.73,65.47c-14.48,18.09-37.83,28.29-61.19,28.29
			c-19.74,0-37.5-5.26-51.32-15.79v10.86h-39.48V56.57h45.07v66.46c12.5-7.57,27.64-12.17,43.43-12.17
			c24.67,0,48.36,9.54,63.49,28.29C1240.08,156.59,1246.99,179.94,1246.99,204.62z M1199.62,204.62c0-15.13-3.29-28.95-9.54-38.16
			c-7.57-11.52-19.08-15.79-33.89-15.79c-12.17,0-22.7,3.95-29.94,12.5c-8.55,9.87-12.5,25.33-12.5,41.45s3.95,31.91,12.5,41.45
			c7.9,8.55,18.75,12.5,31.58,12.5c12.5,0,25.33-4.28,32.9-15.79C1196.99,233.57,1199.62,219.75,1199.62,204.62z"/>
		<path class="st9" d="M1267.4,293.45V51.64h44.74v241.81H1267.4z"/>
		<path class="st9" d="M1389.78,241.47c7.24,9.87,19.41,15.13,32.57,15.13c10.53,0,18.75-2.63,25.33-7.9
			c6.58-5.26,9.54-10.2,11.52-14.47l44.74,12.83c-5.92,14.47-17.11,28.29-30.93,37.18c-13.82,8.88-31.58,14.15-48.03,14.15
			c-26.98,0-54.61-10.2-70.73-29.61c-14.48-17.77-21.71-39.15-21.71-61.85c0-25.66,7.57-49.35,21.71-66.46
			c16.45-19.41,41.78-29.61,68.1-29.61c26.32,0,47.05,8.55,63.5,27.96c17.76,20.73,22.04,47.37,19.74,78.3h-125.01
			C1381.88,226,1384.51,234.56,1389.78,241.47z M1390.11,164.15c-4.61,5.92-6.91,11.84-8.55,18.42h79.29
			c-0.66-7.24-2.63-13.82-7.24-19.74c-6.91-8.88-19.08-13.16-31.26-13.16C1410.83,149.68,1398.99,152.97,1390.11,164.15z"/>
		<path class="st9" d="M1688.17,207.58v85.87h-45.4v-83.89c0-18.42-2.63-36.85-11.84-46.72c-6.25-6.91-15.79-10.53-27.96-10.2
			c-8.22,0.33-15.13,2.63-21.06,6.91c-6.58,4.94-11.19,12.83-13.16,22.7c-1.65,7.9-1.98,21.71-1.98,33.89v77.31h-45.07V115.79h39.48
			v18.42c0.66-0.66,1.65-1.64,2.3-2.63c11.51-13.82,29.61-19.74,45.73-20.73c21.06-1.32,42.44,2.3,59.55,19.08
			C1688.17,149.02,1688.17,179.94,1688.17,207.58z"/>
		<path class="st9" d="M1878,56.57v236.87h-39.48v-10.86c-13.82,10.53-31.58,15.79-51.32,15.79c-23.36,0-46.72-10.2-61.19-28.29
			c-15.13-18.42-20.73-41.12-20.73-65.47c0-24.67,6.91-48.03,20.73-65.47c15.13-18.75,38.82-28.29,63.49-28.29
			c15.79,0,30.93,4.61,43.43,12.17V56.57H1878z M1838.52,204.62c0-16.12-3.95-31.58-12.5-41.45c-7.24-8.55-17.76-12.5-29.94-12.5
			c-14.81,0-26.32,4.28-33.89,15.79c-6.25,9.21-9.54,23.03-9.54,38.16s2.63,28.95,8.88,38.16c7.57,11.51,20.4,15.79,32.9,15.79
			c12.83,0,23.69-3.95,31.58-12.5C1834.57,236.53,1838.52,220.74,1838.52,204.62z"/>
	</g>
</g>
</svg>
